<svg xmlns="http://www.w3.org/2000/svg" viewBox="0 0 256 256" role="img" aria-labelledby="title desc">
  <title id="title">VoidLink icon</title>
  <desc id="desc">A dark USB adapter mark with cyan signal paths.</desc>
  <defs>
    <linearGradient id="edge" x1="38" y1="32" x2="218" y2="224" gradientUnits="userSpaceOnUse">
      <stop stop-color="#53ffe8"/>
      <stop offset="0.52" stop-color="#4e8cff"/>
      <stop offset="1" stop-color="#b65cff"/>
    </linearGradient>
    <linearGradient id="core" x1="64" y1="44" x2="190" y2="214" gradientUnits="userSpaceOnUse">
      <stop stop-color="#141b2a"/>
      <stop offset="1" stop-color="#05070d"/>
    </linearGradient>
    <filter id="glow" x="-40%" y="-40%" width="180%" height="180%">
      <feGaussianBlur stdDeviation="4" result="blur"/>
      <feColorMatrix in="blur" type="matrix" values="0 0 0 0 0.20 0 0 0 0 1 0 0 0 0 0.90 0 0 0 .85 0"/>
      <feMerge>
        <feMergeNode/>
        <feMergeNode in="SourceGraphic"/>
      </feMerge>
    </filter>
  </defs>
  <rect width="256" height="256" rx="48" fill="#060811"/>
  <path d="M55 69c0-12.2 9.8-22 22-22h78.5c8 0 15.4 4.3 19.3 11.3l25.5 45.3a22 22 0 0 1 2.8 10.7V187c0 12.2-9.8 22-22 22H77c-12.2 0-22-9.8-22-22V69Z" fill="url(#core)" stroke="url(#edge)" stroke-width="4"/>
  <path d="M86 85h58l23 41v43H86V85Z" fill="#0c1220" stroke="#263858" stroke-width="3"/>
  <path d="M104 110h31m-31 20h50m-50 20h50" stroke="#53ffe8" stroke-width="7" stroke-linecap="round" filter="url(#glow)"/>
  <path d="M174 105h22c7.7 0 14 6.3 14 14v23c0 7.7-6.3 14-14 14h-22" fill="none" stroke="#4e8cff" stroke-width="9" stroke-linecap="round"/>
  <path d="M67 193h123" stroke="url(#edge)" stroke-width="5" stroke-linecap="round" opacity=".85"/>
</svg>
